<?xml version="1.0" encoding="UTF-8" standalone="no"?>
<!-- Created with Inkscape (http://www.inkscape.org/) -->

<svg
   width="16.0px"
   height="16.0px"
   viewBox="0 0 16.0 16.0"
   version="1.1"
   id="SVGRoot"
   sodipodi:docname="404.svg"
   inkscape:version="1.1.1 (3bf5ae0d25, 2021-09-20, custom)"
   xmlns:inkscape="http://www.inkscape.org/namespaces/inkscape"
   xmlns:sodipodi="http://sodipodi.sourceforge.net/DTD/sodipodi-0.dtd"
   xmlns="http://www.w3.org/2000/svg"
   xmlns:svg="http://www.w3.org/2000/svg">
  <sodipodi:namedview
     id="namedview853"
     pagecolor="#ffffff"
     bordercolor="#666666"
     borderopacity="1.0"
     inkscape:pageshadow="2"
     inkscape:pageopacity="0.0"
     inkscape:pagecheckerboard="0"
     inkscape:document-units="px"
     showgrid="true"
     inkscape:zoom="36.033221"
     inkscape:cx="-0.76318462"
     inkscape:cy="9.0610828"
     inkscape:window-width="1920"
     inkscape:window-height="1040"
     inkscape:window-x="0"
     inkscape:window-y="645"
     inkscape:window-maximized="1"
     inkscape:current-layer="layer1">
    <inkscape:grid
       type="xygrid"
       id="grid916" />
  </sodipodi:namedview>
  <defs
     id="defs848" />
  <g
     inkscape:label="Layer 1"
     inkscape:groupmode="layer"
     id="layer1">
    <rect
       style="fill:#000000"
       id="rect1080"
       width="16"
       height="16"
       x="0"
       y="0" />
    <rect
       style="fill:#f9f9f9"
       id="rect1082"
       width="14"
       height="14"
       x="1"
       y="1" />
    <rect
       style="fill:#f4e3d7"
       id="rect1106"
       width="8"
       height="7"
       x="4"
       y="3" />
    <rect
       style="fill:#f4e3d7"
       id="rect1135"
       width="9"
       height="3"
       x="2"
       y="11" />
    <rect
       style="fill:#f4e3d7"
       id="rect1137"
       width="2"
       height="3"
       x="12"
       y="11" />
    <rect
       style="fill:#ffe6d5"
       id="rect1282"
       width="10"
       height="8"
       x="3"
       y="2" />
    <rect
       style="fill:#0000ff"
       id="rect1372"
       width="8"
       height="6"
       x="4"
       y="3" />
    <rect
       style="fill:#ffffff"
       id="rect1418"
       width="2"
       height="1"
       x="4"
       y="5" />
    <rect
       style="fill:#ffffff"
       id="rect1420"
       width="1"
       height="4"
       x="5"
       y="4" />
    <rect
       style="fill:#ffffff"
       id="rect1422"
       width="1"
       height="1"
       x="4"
       y="6" />
    <rect
       style="fill:#ffffff"
       id="rect1424"
       width="2"
       height="4"
       x="7"
       y="4" />
    <rect
       style="fill:#ffffff"
       id="rect1426"
       width="1"
       height="4"
       x="11"
       y="4" />
    <rect
       style="fill:#ffffff"
       id="rect1428"
       width="1"
       height="2"
       x="10"
       y="5" />
    <rect
       style="fill:#f4e3d7"
       id="rect1498"
       width="7"
       height="1"
       x="3"
       y="13" />
    <rect
       style="fill:#ffe6d5"
       id="rect1569"
       width="3"
       height="1"
       x="5"
       y="13" />
    <rect
       style="fill:#ffe6d5"
       id="rect1571"
       width="2"
       height="1"
       x="9"
       y="11" />
    <rect
       style="fill:#ffe6d5"
       id="rect1573"
       width="1"
       height="2"
       x="10"
       y="12" />
    <rect
       style="fill:#ffe6d5"
       id="rect1575"
       width="2"
       height="1"
       x="12"
       y="11" />
    <rect
       style="fill:#ffe6d5"
       id="rect1577"
       width="1"
       height="1"
       x="2"
       y="11" />
    <rect
       style="fill:#ffe6d5"
       id="rect1579"
       width="2"
       height="1"
       x="2"
       y="12" />
    <rect
       style="fill:#ffe6d5"
       id="rect1581"
       width="1"
       height="1"
       x="2"
       y="13" />
    <rect
       style="fill:#00ff00"
       id="rect1635"
       width="1"
       height="1"
       x="11"
       y="9" />
    <rect
       style="fill:#ff0000"
       id="rect1659"
       width="1"
       height="1"
       x="14"
       y="8" />
    <rect
       style="fill:#ff0000"
       id="rect1661"
       width="1"
       height="4"
       x="14"
       y="3" />
    <rect
       style="fill:#ff6600"
       id="rect1687"
       width="1"
       height="16"
       x="0"
       y="0" />
    <rect
       style="fill:#ff6600"
       id="rect1689"
       width="16"
       height="1"
       x="0"
       y="0" />
    <rect
       style="fill:#ff6600"
       id="rect1691"
       width="1"
       height="16"
       x="15"
       y="0" />
    <rect
       style="fill:#ff6600"
       id="rect1693"
       width="16"
       height="1"
       x="0"
       y="15" />
    <rect
       style="fill:#916f6f"
       id="rect1717"
       width="14"
       height="1"
       x="1"
       y="14" />
    <rect
       style="fill:#916f6f"
       id="rect1719"
       width="1"
       height="13"
       x="1"
       y="1" />
    <rect
       style="fill:#916f6f"
       id="rect1721"
       width="2"
       height="10"
       x="1"
       y="1" />
    <rect
       style="fill:#916f6f"
       id="rect1723"
       width="13"
       height="1"
       x="2"
       y="1" />
    <rect
       style="fill:#916f6f"
       id="rect1725"
       width="2"
       height="2"
       x="13"
       y="1" />
    <rect
       style="fill:#916f6f"
       id="rect1727"
       width="1"
       height="9"
       x="13"
       y="2" />
    <rect
       style="fill:#916f6f"
       id="rect1729"
       width="1"
       height="6"
       x="14"
       y="9" />
    <rect
       style="fill:#916f6f"
       id="rect1731"
       width="2"
       height="1"
       x="13"
       y="7" />
    <rect
       style="fill:#916f6f"
       id="rect1733"
       width="10"
       height="1"
       x="3"
       y="10" />
    <rect
       style="fill:#916f6f"
       id="rect1735"
       width="1"
       height="3"
       x="11"
       y="11" />
    <rect
       style="fill:#008080"
       id="rect1781"
       width="1"
       height="16"
       x="0"
       y="0" />
    <rect
       style="fill:#008080"
       id="rect1783"
       width="16"
       height="1"
       x="0"
       y="0" />
    <rect
       style="fill:#ff00ff"
       id="rect1807"
       width="15"
       height="1"
       x="1"
       y="15" />
    <rect
       style="fill:#ff00ff"
       id="rect1809"
       width="4"
       height="1"
       x="0"
       y="15" />
    <rect
       style="fill:#00ffff"
       id="rect1833"
       width="1"
       height="15"
       x="0"
       y="0" />
    <rect
       style="fill:#ff0000"
       id="rect1857"
       width="15"
       height="1"
       x="1"
       y="0" />
    <rect
       style="fill:#ff6600"
       id="rect1881"
       width="1"
       height="1"
       x="15"
       y="15" />
    <rect
       style="fill:#ff6600"
       id="rect1883"
       width="1"
       height="15"
       x="15"
       y="1" />
    <rect
       style="fill:#ffffff"
       id="rect1974"
       width="2"
       height="2"
       x="4"
       y="5" />
    <rect
       style="fill:#ffffff"
       id="rect1976"
       width="2"
       height="2"
       x="10"
       y="5" />
    <rect
       style="fill:#916f6f"
       id="rect2000"
       width="1"
       height="2"
       x="11"
       y="10" />
    <rect
       style="fill:#916f6f"
       id="rect2002"
       width="3"
       height="1"
       x="12"
       y="10" />
    <rect
       style="fill:#916f6f"
       id="rect2004"
       width="2"
       height="2"
       x="13"
       y="9" />
  </g>
</svg>
