<?xml version="1.0" encoding="UTF-8" standalone="no"?>
<!-- Created with Inkscape (http://www.inkscape.org/) -->

<svg
   width="15"
   height="15"
   viewBox="0 0 15 15"
   version="1.1"
   id="SVGRoot"
   sodipodi:docname="Background.svg"
   inkscape:version="1.2.2 (732a01da63, 2022-12-09)"
   inkscape:export-filename="BackgroundMedium.png"
   inkscape:export-xdpi="204.8"
   inkscape:export-ydpi="204.8"
   xmlns:inkscape="http://www.inkscape.org/namespaces/inkscape"
   xmlns:sodipodi="http://sodipodi.sourceforge.net/DTD/sodipodi-0.dtd"
   xmlns:xlink="http://www.w3.org/1999/xlink"
   xmlns="http://www.w3.org/2000/svg"
   xmlns:svg="http://www.w3.org/2000/svg">
  <sodipodi:namedview
     id="namedview4828"
     pagecolor="#ffffff"
     bordercolor="#000000"
     borderopacity="0.25"
     inkscape:showpageshadow="2"
     inkscape:pageopacity="0.0"
     inkscape:pagecheckerboard="0"
     inkscape:deskcolor="#d1d1d1"
     inkscape:document-units="px"
     showgrid="true"
     inkscape:zoom="23.860606"
     inkscape:cx="0.16764034"
     inkscape:cy="17.476505"
     inkscape:window-width="1920"
     inkscape:window-height="1017"
     inkscape:window-x="-8"
     inkscape:window-y="-8"
     inkscape:window-maximized="1"
     inkscape:current-layer="layer1">
    <inkscape:grid
       type="xygrid"
       id="grid4834"
       empspacing="4"
       originx="0"
       originy="0" />
  </sodipodi:namedview>
  <defs
     id="defs4823">
    <linearGradient
       inkscape:collect="always"
       id="linearGradient15036">
      <stop
         style="stop-color:#f2f2f2;stop-opacity:0.75;"
         offset="0"
         id="stop15032" />
      <stop
         style="stop-color:#808080;stop-opacity:0.5;"
         offset="1"
         id="stop15034" />
    </linearGradient>
    <linearGradient
       inkscape:collect="always"
       id="linearGradient13968">
      <stop
         style="stop-color:#aeaeae;stop-opacity:0.25;"
         offset="0"
         id="stop13964" />
      <stop
         style="stop-color:#a6a6a6;stop-opacity:0.50480771;"
         offset="1"
         id="stop13966" />
    </linearGradient>
    <linearGradient
       inkscape:collect="always"
       xlink:href="#linearGradient15036"
       id="linearGradient13980"
       x1="3"
       y1="1"
       x2="3"
       y2="3"
       gradientUnits="userSpaceOnUse" />
    <linearGradient
       inkscape:collect="always"
       xlink:href="#linearGradient13968"
       id="linearGradient14127"
       x1="0"
       y1="0"
       x2="15"
       y2="15"
       gradientUnits="userSpaceOnUse" />
    <linearGradient
       inkscape:collect="always"
       xlink:href="#linearGradient15036"
       id="linearGradient15403"
       gradientUnits="userSpaceOnUse"
       x1="3"
       y1="1"
       x2="3"
       y2="3"
       gradientTransform="translate(5)" />
    <linearGradient
       inkscape:collect="always"
       xlink:href="#linearGradient15036"
       id="linearGradient15407"
       gradientUnits="userSpaceOnUse"
       gradientTransform="translate(10)"
       x1="3"
       y1="1"
       x2="3"
       y2="3" />
    <linearGradient
       inkscape:collect="always"
       xlink:href="#linearGradient15036"
       id="linearGradient15411"
       gradientUnits="userSpaceOnUse"
       gradientTransform="translate(1,3)"
       x1="3"
       y1="1"
       x2="3"
       y2="3" />
    <linearGradient
       inkscape:collect="always"
       xlink:href="#linearGradient15036"
       id="linearGradient15415"
       gradientUnits="userSpaceOnUse"
       gradientTransform="translate(6,3)"
       x1="3"
       y1="1"
       x2="3"
       y2="3" />
    <linearGradient
       inkscape:collect="always"
       xlink:href="#linearGradient15036"
       id="linearGradient15419"
       gradientUnits="userSpaceOnUse"
       gradientTransform="translate(11,3)"
       x1="3"
       y1="1"
       x2="3"
       y2="3" />
    <linearGradient
       inkscape:collect="always"
       xlink:href="#linearGradient15036"
       id="linearGradient15423"
       gradientUnits="userSpaceOnUse"
       gradientTransform="translate(-4,3)"
       x1="3"
       y1="1"
       x2="3"
       y2="3" />
    <linearGradient
       inkscape:collect="always"
       xlink:href="#linearGradient15036"
       id="linearGradient15427"
       gradientUnits="userSpaceOnUse"
       gradientTransform="translate(2,6)"
       x1="3"
       y1="1"
       x2="3"
       y2="3" />
    <linearGradient
       inkscape:collect="always"
       xlink:href="#linearGradient15036"
       id="linearGradient15431"
       gradientUnits="userSpaceOnUse"
       gradientTransform="translate(-3,6)"
       x1="3"
       y1="1"
       x2="3"
       y2="3" />
    <linearGradient
       inkscape:collect="always"
       xlink:href="#linearGradient15036"
       id="linearGradient15435"
       gradientUnits="userSpaceOnUse"
       gradientTransform="translate(7,6)"
       x1="3"
       y1="1"
       x2="3"
       y2="3" />
    <linearGradient
       inkscape:collect="always"
       xlink:href="#linearGradient15036"
       id="linearGradient15439"
       gradientUnits="userSpaceOnUse"
       gradientTransform="translate(12,6)"
       x1="3"
       y1="1"
       x2="3"
       y2="3" />
    <linearGradient
       inkscape:collect="always"
       xlink:href="#linearGradient15036"
       id="linearGradient15443"
       gradientUnits="userSpaceOnUse"
       gradientTransform="translate(3,9)"
       x1="3"
       y1="1"
       x2="3"
       y2="3" />
    <linearGradient
       inkscape:collect="always"
       xlink:href="#linearGradient15036"
       id="linearGradient15447"
       gradientUnits="userSpaceOnUse"
       gradientTransform="translate(8,9)"
       x1="3"
       y1="1"
       x2="3"
       y2="3" />
    <linearGradient
       inkscape:collect="always"
       xlink:href="#linearGradient15036"
       id="linearGradient15451"
       gradientUnits="userSpaceOnUse"
       gradientTransform="translate(13,9)"
       x1="3"
       y1="1"
       x2="3"
       y2="3" />
    <linearGradient
       inkscape:collect="always"
       xlink:href="#linearGradient15036"
       id="linearGradient15455"
       gradientUnits="userSpaceOnUse"
       gradientTransform="translate(-2,9)"
       x1="3"
       y1="1"
       x2="3"
       y2="3" />
    <linearGradient
       inkscape:collect="always"
       xlink:href="#linearGradient15036"
       id="linearGradient15511"
       gradientUnits="userSpaceOnUse"
       gradientTransform="translate(9,12)"
       x1="3"
       y1="1"
       x2="3"
       y2="3" />
    <linearGradient
       inkscape:collect="always"
       xlink:href="#linearGradient15036"
       id="linearGradient15513"
       gradientUnits="userSpaceOnUse"
       gradientTransform="translate(4,12)"
       x1="3"
       y1="1"
       x2="3"
       y2="3" />
    <linearGradient
       inkscape:collect="always"
       xlink:href="#linearGradient15036"
       id="linearGradient15515"
       gradientUnits="userSpaceOnUse"
       x1="3"
       y1="1"
       x2="3"
       y2="3"
       gradientTransform="translate(-1,12)" />
  </defs>
  <g
     inkscape:label="Layer 1"
     inkscape:groupmode="layer"
     id="layer1">
    <rect
       style="fill:url(#linearGradient14127);fill-opacity:1;stroke-width:0.9375"
       id="rect4893"
       width="15"
       height="15"
       x="0"
       y="0" />
    <path
       style="fill:url(#linearGradient13980);fill-opacity:1;stroke:none;stroke-width:0.1;stroke-dasharray:none;stroke-opacity:1"
       d="M 4,3 H 2 C 2,3 1,3 1,2 1,1 2,1 2,1 H 4 C 4,1 5,1 5,2 5,3 4,3 4,3 Z"
       id="path12425" />
    <path
       style="fill:url(#linearGradient15403);fill-opacity:1;stroke:none;stroke-width:0.1;stroke-dasharray:none;stroke-opacity:1"
       d="M 9,3 H 7 C 7,3 6,3 6,2 6,1 7,1 7,1 h 2 c 0,0 1,0 1,1 0,1 -1,1 -1,1 z"
       id="path15401" />
    <path
       style="fill:url(#linearGradient15407);fill-opacity:1;stroke:none;stroke-width:0.1;stroke-dasharray:none;stroke-opacity:1"
       d="m 14,3 h -2 c 0,0 -1,0 -1,-1 0,-1 1,-1 1,-1 h 2 c 0,0 1,0 1,1 0,1 -1,1 -1,1 z"
       id="path15405" />
    <path
       style="fill:url(#linearGradient15411);fill-opacity:1;stroke:none;stroke-width:0.1;stroke-dasharray:none;stroke-opacity:1"
       d="M 5,6 H 3 C 3,6 2,6 2,5 2,4 3,4 3,4 H 5 C 5,4 6,4 6,5 6,6 5,6 5,6 Z"
       id="path15409" />
    <path
       style="fill:url(#linearGradient15415);fill-opacity:1;stroke:none;stroke-width:0.1;stroke-dasharray:none;stroke-opacity:1"
       d="M 10,6 H 8 C 8,6 7,6 7,5 7,4 8,4 8,4 h 2 c 0,0 1,0 1,1 0,1 -1,1 -1,1 z"
       id="path15413" />
    <path
       style="fill:url(#linearGradient15419);fill-opacity:1;stroke:none;stroke-width:0.1;stroke-dasharray:none;stroke-opacity:1"
       d="m 15,6 h -2 c 0,0 -1,0 -1,-1 0,-1 1,-1 1,-1 h 2 c 0,0 1,0 1,1 0,1 -1,1 -1,1 z"
       id="path15417" />
    <path
       style="fill:url(#linearGradient15423);fill-opacity:1;stroke:none;stroke-width:0.1;stroke-dasharray:none;stroke-opacity:1"
       d="M 0,6 H -2 C -2,6 -3,6 -3,5 -3,4 -2,4 -2,4 H 0 C 0,4 1,4 1,5 1,6 0,6 0,6 Z"
       id="path15421" />
    <path
       style="fill:url(#linearGradient15427);fill-opacity:1;stroke:none;stroke-width:0.1;stroke-dasharray:none;stroke-opacity:1"
       d="M 6,9 H 4 C 4,9 3,9 3,8 3,7 4,7 4,7 H 6 C 6,7 7,7 7,8 7,9 6,9 6,9 Z"
       id="path15425" />
    <path
       style="fill:url(#linearGradient15431);fill-opacity:1;stroke:none;stroke-width:0.1;stroke-dasharray:none;stroke-opacity:1"
       d="M 1,9 H -1 C -1,9 -2,9 -2,8 -2,7 -1,7 -1,7 H 1 C 1,7 2,7 2,8 2,9 1,9 1,9 Z"
       id="path15429" />
    <path
       style="fill:url(#linearGradient15435);fill-opacity:1;stroke:none;stroke-width:0.1;stroke-dasharray:none;stroke-opacity:1"
       d="M 11,9 H 9 C 9,9 8,9 8,8 8,7 9,7 9,7 h 2 c 0,0 1,0 1,1 0,1 -1,1 -1,1 z"
       id="path15433" />
    <path
       style="fill:url(#linearGradient15439);fill-opacity:1;stroke:none;stroke-width:0.1;stroke-dasharray:none;stroke-opacity:1"
       d="m 16,9 h -2 c 0,0 -1,0 -1,-1 0,-1 1,-1 1,-1 h 2 c 0,0 1,0 1,1 0,1 -1,1 -1,1 z"
       id="path15437" />
    <path
       style="fill:url(#linearGradient15443);fill-opacity:1;stroke:none;stroke-width:0.1;stroke-dasharray:none;stroke-opacity:1"
       d="M 7,12 H 5 c 0,0 -1,0 -1,-1 0,-1 1,-1 1,-1 h 2 c 0,0 1,0 1,1 0,1 -1,1 -1,1 z"
       id="path15441" />
    <path
       style="fill:url(#linearGradient15447);fill-opacity:1;stroke:none;stroke-width:0.1;stroke-dasharray:none;stroke-opacity:1"
       d="m 12,12 h -2 c 0,0 -1,0 -1,-1 0,-1 1,-1 1,-1 h 2 c 0,0 1,0 1,1 0,1 -1,1 -1,1 z"
       id="path15445" />
    <path
       style="fill:url(#linearGradient15451);fill-opacity:1;stroke:none;stroke-width:0.1;stroke-dasharray:none;stroke-opacity:1"
       d="m 17,12 h -2 c 0,0 -1,0 -1,-1 0,-1 1,-1 1,-1 h 2 c 0,0 1,0 1,1 0,1 -1,1 -1,1 z"
       id="path15449" />
    <path
       style="fill:url(#linearGradient15455);fill-opacity:1;stroke:none;stroke-width:0.1;stroke-dasharray:none;stroke-opacity:1"
       d="M 2,12 H 0 c 0,0 -1,0 -1,-1 0,-1 1,-1 1,-1 h 2 c 0,0 1,0 1,1 0,1 -1,1 -1,1 z"
       id="path15453" />
    <path
       style="fill:url(#linearGradient15515);fill-opacity:1;stroke:none;stroke-width:0.1;stroke-dasharray:none;stroke-opacity:1"
       d="M 3,15 H 1 c 0,0 -1,0 -1,-1 0,-1 1,-1 1,-1 h 2 c 0,0 1,0 1,1 0,1 -1,1 -1,1 z"
       id="path15457" />
    <path
       style="fill:url(#linearGradient15513);fill-opacity:1;stroke:none;stroke-width:0.1;stroke-dasharray:none;stroke-opacity:1"
       d="M 8,15 H 6 c 0,0 -1,0 -1,-1 0,-1 1,-1 1,-1 h 2 c 0,0 1,0 1,1 0,1 -1,1 -1,1 z"
       id="path15459" />
    <path
       style="fill:url(#linearGradient15511);fill-opacity:1;stroke:none;stroke-width:0.1;stroke-dasharray:none;stroke-opacity:1"
       d="m 13,15 h -2 c 0,0 -1,0 -1,-1 0,-1 1,-1 1,-1 h 2 c 0,0 1,0 1,1 0,1 -1,1 -1,1 z"
       id="path15461" />
  </g>
</svg>
