<?xml version="1.0" encoding="UTF-8" standalone="no"?>
<!-- Created with Inkscape (http://www.inkscape.org/) -->

<svg
   width="384"
   height="128"
   viewBox="0 0 384 128"
   version="1.1"
   id="svg5"
   inkscape:version="1.1.2 (0a00cf5339, 2022-02-04, custom)"
   sodipodi:docname="banner.svg"
   xmlns:inkscape="http://www.inkscape.org/namespaces/inkscape"
   xmlns:sodipodi="http://sodipodi.sourceforge.net/DTD/sodipodi-0.dtd"
   xmlns:xlink="http://www.w3.org/1999/xlink"
   xmlns="http://www.w3.org/2000/svg"
   xmlns:svg="http://www.w3.org/2000/svg">
  <sodipodi:namedview
     id="namedview7"
     pagecolor="#ffffff"
     bordercolor="#666666"
     borderopacity="1.0"
     inkscape:pageshadow="2"
     inkscape:pageopacity="0.0"
     inkscape:pagecheckerboard="0"
     inkscape:document-units="px"
     showgrid="true"
     inkscape:zoom="4.2838886"
     inkscape:cx="-0.70029833"
     inkscape:cy="-96.057587"
     inkscape:window-width="3840"
     inkscape:window-height="2160"
     inkscape:window-x="0"
     inkscape:window-y="0"
     inkscape:window-maximized="1"
     inkscape:current-layer="layer2">
    <inkscape:grid
       type="xygrid"
       id="grid824"
       empspacing="4" />
  </sodipodi:namedview>
  <defs
     id="defs2">
    <linearGradient
       inkscape:collect="always"
       id="linearGradient985">
      <stop
         style="stop-color:#000000;stop-opacity:1;"
         offset="0"
         id="stop981" />
      <stop
         style="stop-color:#000000;stop-opacity:0;"
         offset="1"
         id="stop983" />
    </linearGradient>
    <linearGradient
       inkscape:collect="always"
       xlink:href="#linearGradient985"
       id="linearGradient987"
       x1="200"
       y1="0"
       x2="200"
       y2="128"
       gradientUnits="userSpaceOnUse" />
  </defs>
  <g
     inkscape:label="Layer 1"
     inkscape:groupmode="layer"
     id="layer1">
    <path
       style="fill:url(#linearGradient987);stroke:none;stroke-width:1px;stroke-linecap:butt;stroke-linejoin:miter;stroke-opacity:1;fill-opacity:1"
       d="M 0,0 H 384 V 128 H 0 V 0"
       id="path913" />
    <path
       style="fill:#ffffff;stroke:none;stroke-width:1px;stroke-linecap:butt;stroke-linejoin:miter;stroke-opacity:1;fill-opacity:0"
       d="m 152,36 -4,4 h 4 z"
       id="path1244" />
  </g>
  <g
     inkscape:groupmode="layer"
     id="layer2"
     inkscape:label="Layer 2">
    <path
       style="fill:#ffffff;stroke:none;stroke-width:1px;stroke-linecap:butt;stroke-linejoin:miter;stroke-opacity:1;fill-opacity:0"
       d="m 200,60 -2,2 h 2 v -2"
       id="path1445" />
    <path
       style="fill:#ffffff;stroke:none;stroke-width:1px;stroke-linecap:butt;stroke-linejoin:miter;stroke-opacity:1;fill-opacity:0"
       d="m 197,60 v 2 c 0,0 -1,0 -1,0 0,0 0,-2 0,-2 h 1"
       id="path2041" />
    <path
       style="fill:#ffffff;stroke:none;stroke-width:1px;stroke-linecap:butt;stroke-linejoin:miter;stroke-opacity:1;fill-opacity:0"
       d="m 199,60 -2,2 h 2 v -2"
       id="path2142" />
    <path
       style="fill:none;stroke:none;stroke-width:1px;stroke-linecap:butt;stroke-linejoin:miter;stroke-opacity:1;fill-opacity:0"
       d="m 199,61 3,1 c 0,0 -4,2 -4,2 0,0 -2,0 -3,-3 -1,-3 2,-4 0,-3 -2,1 -5,0 -5,2 0,2 0,1 1,2 1,1 -3,1 -3,1 0,0 0,-2 0,-3 0,-1 2,-3 3,-3 1,0 6,0 6,0 l 2,4"
       id="path2573" />
    <path
       style="fill:#ffffff;fill-opacity:1;stroke:none;stroke-width:0.599999px;stroke-linecap:butt;stroke-linejoin:miter;stroke-opacity:1"
       d="M 203,63.999988 200,67 h 3 v -3.000012"
       id="path2915" />
    <path
       style="fill:#ffffff;fill-opacity:1;stroke:none;stroke-width:0.599999px;stroke-linecap:butt;stroke-linejoin:miter;stroke-opacity:1"
       d="M 198,83.999988 195,87 h 3 v -3.000012"
       id="path2915-35" />
    <path
       style="fill:#ffffff;fill-opacity:1;stroke:none;stroke-width:0.599999px;stroke-linecap:butt;stroke-linejoin:miter;stroke-opacity:1"
       d="m 75,36 -3,3.000012 h 3 V 36"
       id="path2915-35-6" />
    <path
       style="fill:#ffffff;fill-opacity:1;stroke:none;stroke-width:0.599999px;stroke-linecap:butt;stroke-linejoin:miter;stroke-opacity:1"
       d="m 145,25 -3,3.000012 h 3 V 25"
       id="path2915-35-6-9" />
    <path
       style="fill:#ffffff;fill-opacity:1;stroke:none;stroke-width:0.599999px;stroke-linecap:butt;stroke-linejoin:miter;stroke-opacity:1"
       d="M 176,43.999988 173,47 h 3 v -3.000012"
       id="path2915-35-6-9-1" />
    <path
       style="fill:#ffffff;fill-opacity:1;stroke:none;stroke-width:0.599999px;stroke-linecap:butt;stroke-linejoin:miter;stroke-opacity:1"
       d="m 257,28 -3,3.000012 h 3 V 28"
       id="path2915-35-6-9-1-2" />
    <path
       style="fill:#ffffff;fill-opacity:1;stroke:none;stroke-width:0.599999px;stroke-linecap:butt;stroke-linejoin:miter;stroke-opacity:1"
       d="M 201,15.999988 198,19 h 3 v -3.000012"
       id="path2915-35-6-9-1-2-7" />
    <path
       style="fill:#ffffff;fill-opacity:1;stroke:none;stroke-width:0.599999px;stroke-linecap:butt;stroke-linejoin:miter;stroke-opacity:1"
       d="m 240,84 -3,3.000012 h 3 V 84"
       id="path2915-35-6-9-1-2-7-0" />
    <path
       style="fill:#ffffff;fill-opacity:1;stroke:none;stroke-width:0.599999px;stroke-linecap:butt;stroke-linejoin:miter;stroke-opacity:1"
       d="M 147,96.999988 144,100 h 3 v -3.000012"
       id="path2915-35-6-2" />
    <path
       style="fill:#ffffff;fill-opacity:1;stroke:none;stroke-width:0.599999px;stroke-linecap:butt;stroke-linejoin:miter;stroke-opacity:1"
       d="M 161,73.999988 158,77 h 3 v -3.000012"
       id="path2915-3" />
    <path
       style="fill:#ffffff;fill-opacity:1;stroke:none;stroke-width:0.599999px;stroke-linecap:butt;stroke-linejoin:miter;stroke-opacity:1"
       d="m 228,38 -3,3.000012 h 3 V 38"
       id="path2915-3-5" />
    <path
       style="fill:#ffffff;fill-opacity:1;stroke:none;stroke-width:0.599999px;stroke-linecap:butt;stroke-linejoin:miter;stroke-opacity:1"
       d="M 113,56.999988 110,60 h 3 v -3.000012"
       id="path2915-3-6" />
    <path
       style="fill:#ffffff;fill-opacity:1;stroke:none;stroke-width:0.599999px;stroke-linecap:butt;stroke-linejoin:miter;stroke-opacity:1"
       d="M 96,78.999988 93,82 h 3 v -3.000012"
       id="path2915-3-6-7" />
    <path
       style="fill:#ffffff;fill-opacity:1;stroke:none;stroke-width:0.599999px;stroke-linecap:butt;stroke-linejoin:miter;stroke-opacity:1"
       d="m 259,63 -3,3.000012 h 3 V 63"
       id="path3542" />
    <path
       style="fill:#ffffff;fill-opacity:1;stroke:none;stroke-width:0.599999px;stroke-linecap:butt;stroke-linejoin:miter;stroke-opacity:1"
       d="M 63,73.999988 60,77 h 3 v -3.000012"
       id="path3544" />
    <path
       style="fill:#ffffff;fill-opacity:1;stroke:none;stroke-width:0.599999px;stroke-linecap:butt;stroke-linejoin:miter;stroke-opacity:1"
       d="M 42,99.999988 39,103 h 3 v -3.000012"
       id="path3593" />
    <path
       style="fill:#ffffff;fill-opacity:1;stroke:none;stroke-width:0.599999px;stroke-linecap:butt;stroke-linejoin:miter;stroke-opacity:1"
       d="M 31,18.999988 28,22 h 3 v -3.000012"
       id="path3595" />
    <path
       style="fill:#ffffff;fill-opacity:1;stroke:none;stroke-width:0.599999px;stroke-linecap:butt;stroke-linejoin:miter;stroke-opacity:1"
       d="M 22,59.999988 19,63 h 3 v -3.000012"
       id="path3597" />
    <path
       style="fill:#ffffff;fill-opacity:1;stroke:none;stroke-width:0.599999px;stroke-linecap:butt;stroke-linejoin:miter;stroke-opacity:1"
       d="M 270,103.99999 267,107 h 3 v -3.00001"
       id="path3599" />
    <path
       style="fill:#ffffff;fill-opacity:1;stroke:none;stroke-width:0.599999px;stroke-linecap:butt;stroke-linejoin:miter;stroke-opacity:1"
       d="M 211,111.99999 208,115 h 3 v -3.00001"
       id="path3601" />
    <path
       style="fill:#ffffff;fill-opacity:1;stroke:none;stroke-width:0.599999px;stroke-linecap:butt;stroke-linejoin:miter;stroke-opacity:1"
       d="M 305,53.99999 302,57 h 3 v -3.00001"
       id="path3603" />
    <path
       style="fill:#ffffff;fill-opacity:1;stroke:none;stroke-width:0.599999px;stroke-linecap:butt;stroke-linejoin:miter;stroke-opacity:1"
       d="M 327,104.99999 324,108 h 3 v -3.00001"
       id="path3605" />
    <path
       style="fill:#ffffff;fill-opacity:1;stroke:none;stroke-width:0.599999px;stroke-linecap:butt;stroke-linejoin:miter;stroke-opacity:1"
       d="M 321,18.99999 318,22 h 3 v -3.00001"
       id="path3607" />
    <path
       style="fill:#ffffff;fill-opacity:1;stroke:none;stroke-width:0.599999px;stroke-linecap:butt;stroke-linejoin:miter;stroke-opacity:1"
       d="M 364,67.99999 361,71 h 3 v -3.00001"
       id="path3609" />
    <path
       style="fill:#ffffff;fill-opacity:1;stroke:none;stroke-width:0.599999px;stroke-linecap:butt;stroke-linejoin:miter;stroke-opacity:1"
       d="m 372,13 -3,3.00001 h 3 V 13"
       id="path3611" />
    <path
       style="fill:#ffffff;fill-opacity:1;stroke:none;stroke-width:0.599999px;stroke-linecap:butt;stroke-linejoin:miter;stroke-opacity:1"
       d="M 348,31.99999 351,35 h -3 v -3.00001"
       id="path3654" />
    <path
       style="fill:#ffffff;fill-opacity:1;stroke:none;stroke-width:0.599999px;stroke-linecap:butt;stroke-linejoin:miter;stroke-opacity:1"
       d="M 296,83.99999 299,87 h -3 v -3.00001"
       id="path3656" />
    <path
       style="fill:#ffffff;fill-opacity:1;stroke:none;stroke-width:0.599999px;stroke-linecap:butt;stroke-linejoin:miter;stroke-opacity:1"
       d="M 354,116.99999 357,120 h -3 v -3.00001"
       id="path3658" />
    <path
       style="fill:#ffffff;fill-opacity:1;stroke:none;stroke-width:0.599999px;stroke-linecap:butt;stroke-linejoin:miter;stroke-opacity:1"
       d="M 217,92.99999 220,96 h -3 v -3.00001"
       id="path3660" />
    <path
       style="fill:#ffffff;fill-opacity:1;stroke:none;stroke-width:0.599999px;stroke-linecap:butt;stroke-linejoin:miter;stroke-opacity:1"
       d="M 87,108.99999 90,112 h -3 v -3.00001"
       id="path3662" />
    <path
       style="fill:#ffffff;fill-opacity:1;stroke:none;stroke-width:0.599999px;stroke-linecap:butt;stroke-linejoin:miter;stroke-opacity:1"
       d="M 48,11.99999 51,15 h -3 v -3.00001"
       id="path3664" />
    <path
       style="fill:#ffffff;fill-opacity:1;stroke:none;stroke-width:0.599999px;stroke-linecap:butt;stroke-linejoin:miter;stroke-opacity:1"
       d="M 64,112.99999 67,116 h -3 v -3.00001"
       id="path3666" />
    <path
       style="fill:#ffffff;fill-opacity:1;stroke:none;stroke-width:0.599999px;stroke-linecap:butt;stroke-linejoin:miter;stroke-opacity:1"
       d="M 16,82.99999 19,86 h -3 v -3.00001"
       id="path3668" />
    <path
       style="fill:#ffffff;fill-opacity:1;stroke:none;stroke-width:0.599999px;stroke-linecap:butt;stroke-linejoin:miter;stroke-opacity:1"
       d="M 101,14.99999 104,18 h -3 v -3.00001"
       id="path3670" />
    <path
       style="fill:#ffffff;fill-opacity:1;stroke:none;stroke-width:0.599999px;stroke-linecap:butt;stroke-linejoin:miter;stroke-opacity:1"
       d="M 15,35.99999 18,39 h -3 v -3.00001"
       id="path3672" />
    <path
       style="fill:#ffffff;fill-opacity:1;stroke:none;stroke-width:0.599999px;stroke-linecap:butt;stroke-linejoin:miter;stroke-opacity:1"
       d="M 139,50.99999 142,54 h -3 v -3.00001"
       id="path3725" />
    <path
       style="fill:#ffffff;fill-opacity:1;stroke:none;stroke-width:0.599999px;stroke-linecap:butt;stroke-linejoin:miter;stroke-opacity:1"
       d="M 78,54.99999 81,58 h -3 v -3.00001"
       id="path3727" />
    <path
       style="fill:#ffffff;fill-opacity:1;stroke:none;stroke-width:0.599999px;stroke-linecap:butt;stroke-linejoin:miter;stroke-opacity:1"
       d="M 337,69.99999 340,73 h -3 v -3.00001"
       id="path3729" />
    <path
       style="fill:#ffffff;fill-opacity:1;stroke:none;stroke-width:0.599999px;stroke-linecap:butt;stroke-linejoin:miter;stroke-opacity:1"
       d="M 272,8.99999 275,12 h -3 V 8.99999"
       id="path3731" />
    <path
       style="fill:#ffffff;fill-opacity:1;stroke:none;stroke-width:0.199998px;stroke-linecap:butt;stroke-linejoin:miter;stroke-opacity:1"
       d="M 177,65.000012 176,66 h 1 v -0.999988"
       id="path3788" />
    <path
       style="fill:#ffffff;fill-opacity:1;stroke:none;stroke-width:0.199998px;stroke-linecap:butt;stroke-linejoin:miter;stroke-opacity:1"
       d="M 121,87.000012 120,88 h 1 v -0.999988"
       id="path3790" />
    <path
       style="fill:#ffffff;fill-opacity:1;stroke:none;stroke-width:0.199998px;stroke-linecap:butt;stroke-linejoin:miter;stroke-opacity:1"
       d="M 49,49.000012 48,50 h 1 v -0.999988"
       id="path3792" />
    <path
       style="fill:#ffffff;fill-opacity:1;stroke:none;stroke-width:0.199998px;stroke-linecap:butt;stroke-linejoin:miter;stroke-opacity:1"
       d="M 14,103.00001 13,104 h 1 v -0.99999"
       id="path3794" />
    <path
       style="fill:#ffffff;fill-opacity:1;stroke:none;stroke-width:0.199998px;stroke-linecap:butt;stroke-linejoin:miter;stroke-opacity:1"
       d="M 165,107.00001 164,108 h 1 v -0.99999"
       id="path3796" />
    <path
       style="fill:#ffffff;fill-opacity:1;stroke:none;stroke-width:0.199998px;stroke-linecap:butt;stroke-linejoin:miter;stroke-opacity:1"
       d="M 120,33.00001 119,34 h 1 v -0.99999"
       id="path3798" />
    <path
       style="fill:#ffffff;fill-opacity:1;stroke:none;stroke-width:0.199998px;stroke-linecap:butt;stroke-linejoin:miter;stroke-opacity:1"
       d="M 16,19.00001 15,20 h 1 v -0.99999"
       id="path3800" />
    <path
       style="fill:#ffffff;fill-opacity:1;stroke:none;stroke-width:0.199998px;stroke-linecap:butt;stroke-linejoin:miter;stroke-opacity:1"
       d="M 70,86.00001 69,87 h 1 v -0.99999"
       id="path3802" />
    <path
       style="fill:#ffffff;fill-opacity:1;stroke:none;stroke-width:0.199998px;stroke-linecap:butt;stroke-linejoin:miter;stroke-opacity:1"
       d="M 249,115.00001 248,116 h 1 v -0.99999"
       id="path3804" />
    <path
       style="fill:#ffffff;fill-opacity:1;stroke:none;stroke-width:0.199998px;stroke-linecap:butt;stroke-linejoin:miter;stroke-opacity:1"
       d="m 282,39 -1,0.99999 h 1 V 39"
       id="path3806" />
    <path
       style="fill:#ffffff;fill-opacity:1;stroke:none;stroke-width:0.199998px;stroke-linecap:butt;stroke-linejoin:miter;stroke-opacity:1"
       d="M 210,26.00001 209,27 h 1 v -0.99999"
       id="path3808" />
    <path
       style="fill:#ffffff;fill-opacity:1;stroke:none;stroke-width:0.199998px;stroke-linecap:butt;stroke-linejoin:miter;stroke-opacity:1"
       d="M 210,26.00001 209,27 h 1 v -0.99999"
       id="path3810" />
    <path
       style="fill:#ffffff;fill-opacity:1;stroke:none;stroke-width:0.199998px;stroke-linecap:butt;stroke-linejoin:miter;stroke-opacity:1"
       d="M 174,19.00001 173,20 h 1 v -0.99999"
       id="path3812" />
    <path
       style="fill:#ffffff;fill-opacity:1;stroke:none;stroke-width:0.199998px;stroke-linecap:butt;stroke-linejoin:miter;stroke-opacity:1"
       d="M 174,19.00001 173,20 h 1 v -0.99999"
       id="path3814" />
    <path
       style="fill:#ffffff;fill-opacity:1;stroke:none;stroke-width:0.199998px;stroke-linecap:butt;stroke-linejoin:miter;stroke-opacity:1"
       d="M 236,61.00001 235,62 h 1 v -0.99999"
       id="path3816" />
    <path
       style="fill:#ffffff;fill-opacity:1;stroke:none;stroke-width:0.199998px;stroke-linecap:butt;stroke-linejoin:miter;stroke-opacity:1"
       d="m 340,12 -1,0.99999 h 1 V 12"
       id="path3818" />
    <path
       style="fill:#ffffff;fill-opacity:1;stroke:none;stroke-width:0.199998px;stroke-linecap:butt;stroke-linejoin:miter;stroke-opacity:1"
       d="M 369,46.00001 368,47 h 1 v -0.99999"
       id="path3820" />
    <path
       style="fill:#ffffff;fill-opacity:1;stroke:none;stroke-width:0.199998px;stroke-linecap:butt;stroke-linejoin:miter;stroke-opacity:1"
       d="M 294,67.00001 293,68 h 1 v -0.99999"
       id="path3822" />
  </g>
</svg>
