<?xml version="1.0" encoding="UTF-8" standalone="no"?>
<!-- Created with Inkscape (http://www.inkscape.org/) -->

<svg
   width="16"
   height="16"
   viewBox="0 0 16 16"
   version="1.1"
   id="svg5"
   inkscape:version="1.1.2 (0a00cf5339, 2022-02-04, custom)"
   sodipodi:docname="Clygro Logo Old.svg"
   xmlns:inkscape="http://www.inkscape.org/namespaces/inkscape"
   xmlns:sodipodi="http://sodipodi.sourceforge.net/DTD/sodipodi-0.dtd"
   xmlns:xlink="http://www.w3.org/1999/xlink"
   xmlns="http://www.w3.org/2000/svg"
   xmlns:svg="http://www.w3.org/2000/svg">
  <sodipodi:namedview
     id="namedview7"
     pagecolor="#ffffff"
     bordercolor="#666666"
     borderopacity="1.0"
     inkscape:pageshadow="2"
     inkscape:pageopacity="0.0"
     inkscape:pagecheckerboard="0"
     inkscape:document-units="px"
     showgrid="true"
     inkscape:zoom="32.129164"
     inkscape:cx="5.4156404"
     inkscape:cy="7.3297891"
     inkscape:window-width="1920"
     inkscape:window-height="1060"
     inkscape:window-x="3840"
     inkscape:window-y="540"
     inkscape:window-maximized="1"
     inkscape:current-layer="layer1">
    <inkscape:grid
       type="xygrid"
       id="grid2248"
       empspacing="4" />
  </sodipodi:namedview>
  <defs
     id="defs2">
    <linearGradient
       inkscape:collect="always"
       id="linearGradient2419">
      <stop
         style="stop-color:#f47d9b;stop-opacity:1"
         offset="0"
         id="stop2415" />
      <stop
         style="stop-color:#ffcd00;stop-opacity:1"
         offset="1"
         id="stop2417" />
    </linearGradient>
    <linearGradient
       inkscape:collect="always"
       xlink:href="#linearGradient2419"
       id="linearGradient2421"
       x1="16"
       y1="0"
       x2="0"
       y2="16"
       gradientUnits="userSpaceOnUse" />
  </defs>
  <g
     inkscape:label="Layer 1"
     inkscape:groupmode="layer"
     id="layer1">
    <path
       style="fill:#000000;fill-opacity:1;stroke:none;stroke-width:1px;stroke-linecap:butt;stroke-linejoin:miter;stroke-opacity:1"
       d="M -7,4 V 2 c 0,0 -10,0 -10,6 0,6 10,6 10,6 v -2 c 0,0 -8,0 -8,-4 0,-4 8,-4 8,-4"
       id="path1342" />
    <path
       style="fill:url(#linearGradient2421);fill-opacity:1;stroke:none;stroke-width:1px;stroke-linecap:butt;stroke-linejoin:miter;stroke-opacity:1"
       d="M 0,0 H 16 V 16 H 0 V 0"
       id="path1523" />
  </g>
  <g
     inkscape:groupmode="layer"
     id="layer3"
     inkscape:label="Layer 3">
    <path
       style="fill:#191919;fill-opacity:0.25;stroke:none;stroke-width:1px;stroke-linecap:butt;stroke-linejoin:miter;stroke-opacity:1"
       d="m 12,4 c 0,0 -8,0 -8,5 0,5 8,6 8,6 V 14 C 12,14 5,13 5,9 5,5 12,5 12,5 V 4"
       id="path1842" />
  </g>
  <g
     inkscape:groupmode="layer"
     id="layer2"
     inkscape:label="Layer 2">
    <path
       style="fill:#ffffff;fill-opacity:1;stroke:none;stroke-width:1px;stroke-linecap:butt;stroke-linejoin:miter;stroke-opacity:1"
       d="m 12,2 c 0,0 -8,0 -8,6 0,6 8,6 8,6 V 12 C 12,12 6,12 6,8 6,4 12,4 12,4 V 2"
       id="path859" />
  </g>
</svg>
