<?xml version="1.0" encoding="UTF-8" standalone="no"?>
<!-- Created with Inkscape (http://www.inkscape.org/) -->

<svg
   xmlns:dc="http://purl.org/dc/elements/1.1/"
   xmlns:cc="http://creativecommons.org/ns#"
   xmlns:rdf="http://www.w3.org/1999/02/22-rdf-syntax-ns#"
   xmlns:svg="http://www.w3.org/2000/svg"
   xmlns="http://www.w3.org/2000/svg"
   xmlns:sodipodi="http://sodipodi.sourceforge.net/DTD/sodipodi-0.dtd"
   xmlns:inkscape="http://www.inkscape.org/namespaces/inkscape"
   width="32px"
   height="32px"
   viewBox="0 0 32 32"
   version="1.1"
   id="SVGRoot"
   inkscape:version="0.92.5 (2060ec1f9f, 2020-04-08)"
   sodipodi:docname="Colours 2.svg">
  <defs
     id="defs8302" />
  <sodipodi:namedview
     id="base"
     pagecolor="#ffffff"
     bordercolor="#666666"
     borderopacity="1.0"
     inkscape:pageopacity="0.0"
     inkscape:pageshadow="2"
     inkscape:zoom="16"
     inkscape:cx="20.614685"
     inkscape:cy="15.017844"
     inkscape:document-units="px"
     inkscape:current-layer="layer8"
     showgrid="true"
     inkscape:window-width="3840"
     inkscape:window-height="2107"
     inkscape:window-x="1920"
     inkscape:window-y="0"
     inkscape:window-maximized="1"
     inkscape:grid-bbox="true">
    <inkscape:grid
       type="xygrid"
       id="grid8859"
       empspacing="4" />
  </sodipodi:namedview>
  <metadata
     id="metadata8305">
    <rdf:RDF>
      <cc:Work
         rdf:about="">
        <dc:format>image/svg+xml</dc:format>
        <dc:type
           rdf:resource="http://purl.org/dc/dcmitype/StillImage" />
        <dc:title></dc:title>
      </cc:Work>
    </rdf:RDF>
  </metadata>
  <g
     inkscape:groupmode="layer"
     id="layer8"
     inkscape:label="Layer 2">
    <path
       style="fill:#e6e6e6;stroke:#adadad;stroke-width:1.13385827;stroke-linecap:butt;stroke-linejoin:miter;stroke-opacity:1;fill-opacity:1;stroke-miterlimit:4;stroke-dasharray:none"
       d="m 2,31 h 28 c 0,0 1,0 1,-1 0,-1 0,-18 0,-18 0,0 0,-1 -1,-1 -1,0 -13,0 -13,0 0,0 -1,0 -1,-1 C 16,9 16,2 16,2 16,2 16,1 15,1 14,1 2,1 2,1 2,1 1,1 1,2 c 0,1 0,28 0,28 0,0 0,1 1,1"
       id="path8863"
       inkscape:connector-curvature="0" />
    <path
       style="fill:#f47d9b;stroke:none;stroke-width:1px;stroke-linecap:butt;stroke-linejoin:miter;stroke-opacity:1;fill-opacity:1"
       d="M 3,8 V 4 C 3,4 3,3 4,3 5,3 8,3 8,3 8,3 9,3 9,4 9,5 9,8 9,8 9,8 9,9 8,9 7,9 4,9 4,9 4,9 3,9 3,8 3,7 3,7 3,7"
       id="path8865"
       inkscape:connector-curvature="0" />
    <path
       style="fill:#6b00ff;stroke:none;stroke-width:1px;stroke-linecap:butt;stroke-linejoin:miter;stroke-opacity:1;fill-opacity:1"
       d="m 4,10 h 4 c 0,0 1,0 1,1 0,1 0,4 0,4 0,0 0,1 -1,1 -1,0 -4,0 -4,0 0,0 -1,0 -1,-1 0,-1 0,-4 0,-4 0,0 0,-1 1,-1"
       id="path8877"
       inkscape:connector-curvature="0" />
    <path
       style="fill:#ffcd00;fill-opacity:1;stroke:none;stroke-width:1px;stroke-linecap:butt;stroke-linejoin:miter;stroke-opacity:1"
       d="m 3,26 v -8 c 0,0 0,-1 1,-1 1,0 8,0 8,0 0,0 1,0 1,1 0,1 0,8 0,8 0,0 0,1 -1,1 -1,0 -8,0 -8,0 0,0 -1,0 -1,-1"
       id="path8887"
       inkscape:connector-curvature="0" />
  </g>
</svg>
