<?xml version="1.0" encoding="UTF-8" standalone="no"?>
<!-- Created with Inkscape (http://www.inkscape.org/) -->

<svg
   xmlns:osb="http://www.openswatchbook.org/uri/2009/osb"
   xmlns:dc="http://purl.org/dc/elements/1.1/"
   xmlns:cc="http://creativecommons.org/ns#"
   xmlns:rdf="http://www.w3.org/1999/02/22-rdf-syntax-ns#"
   xmlns:svg="http://www.w3.org/2000/svg"
   xmlns="http://www.w3.org/2000/svg"
   xmlns:xlink="http://www.w3.org/1999/xlink"
   xmlns:sodipodi="http://sodipodi.sourceforge.net/DTD/sodipodi-0.dtd"
   xmlns:inkscape="http://www.inkscape.org/namespaces/inkscape"
   width="32px"
   height="32px"
   viewBox="0 0 32 32"
   version="1.1"
   id="SVGRoot"
   inkscape:version="0.92.5 (2060ec1f9f, 2020-04-08)"
   sodipodi:docname="Folder 2.svg">
  <defs
     id="defs6371">
    <linearGradient
       id="linearGradient7037"
       osb:paint="solid">
      <stop
         style="stop-color:#ffcd00;stop-opacity:1;"
         offset="0"
         id="stop7035" />
    </linearGradient>
    <linearGradient
       osb:paint="gradient"
       id="linearGradient6970">
      <stop
         id="stop6976"
         offset="0"
         style="stop-color:#cca400;stop-opacity:1;" />
      <stop
         id="stop6978"
         offset="1"
         style="stop-color:#cca400;stop-opacity:0;" />
    </linearGradient>
    <linearGradient
       inkscape:collect="always"
       id="linearGradient6970-3">
      <stop
         style="stop-color:#cca400;stop-opacity:1;"
         offset="0"
         id="stop6966" />
      <stop
         style="stop-color:#cca400;stop-opacity:0;"
         offset="1"
         id="stop6968" />
    </linearGradient>
    <linearGradient
       inkscape:collect="always"
       xlink:href="#linearGradient6970-3"
       id="linearGradient6974"
       x1="2"
       y1="22"
       x2="181"
       y2="21"
       gradientUnits="userSpaceOnUse" />
  </defs>
  <sodipodi:namedview
     id="base"
     pagecolor="#ffffff"
     bordercolor="#666666"
     borderopacity="1.0"
     inkscape:pageopacity="0.0"
     inkscape:pageshadow="2"
     inkscape:zoom="45.254834"
     inkscape:cx="17.75391"
     inkscape:cy="13.958581"
     inkscape:document-units="px"
     inkscape:current-layer="layer6"
     showgrid="true"
     inkscape:window-width="3840"
     inkscape:window-height="2107"
     inkscape:window-x="1920"
     inkscape:window-y="0"
     inkscape:window-maximized="1"
     inkscape:grid-bbox="true">
    <inkscape:grid
       type="xygrid"
       id="grid6927"
       empspacing="4" />
  </sodipodi:namedview>
  <metadata
     id="metadata6374">
    <rdf:RDF>
      <cc:Work
         rdf:about="">
        <dc:format>image/svg+xml</dc:format>
        <dc:type
           rdf:resource="http://purl.org/dc/dcmitype/StillImage" />
        <dc:title></dc:title>
      </cc:Work>
    </rdf:RDF>
  </metadata>
  <g
     inkscape:groupmode="layer"
     id="layer6"
     inkscape:label="Layer 2">
    <path
       style="fill:url(#linearGradient6974);stroke:#ffcd00;stroke-width:1.13385827;stroke-linecap:butt;stroke-linejoin:miter;stroke-opacity:1;fill-opacity:1;stroke-miterlimit:4;stroke-dasharray:none"
       d="m 31,30 c 0,0 0,1 -1,1 C 29,31 2,31 2,31 2,31 1,31 1,30 1,29 1,20 1,20 h 14 8 c 0,0 1,0 1,-1 0,-1 0,-8 0,-8 v -1 h 6 c 0,0 1,0 1,1 0,1 0,19 0,19 z"
       id="path6930"
       inkscape:connector-curvature="0" />
    <path
       style="fill:#ffcd00;stroke:#ffef6b;stroke-width:1.13385827;stroke-linecap:butt;stroke-linejoin:miter;stroke-opacity:1;fill-opacity:1;stroke-miterlimit:4;stroke-dasharray:none"
       d="M 1,20 V 5 2 c 0,0 0,-1 1,-1 1,0 21,0 21,0 0,0 1,0 1,1 0,1 0,17 0,17 0,0 0,1 -1,1 -1,0 -22,0 -22,0"
       id="path6981"
       inkscape:connector-curvature="0" />
    <path
       style="fill:none;stroke:#ffef6b;stroke-width:1.13385827;stroke-linecap:butt;stroke-linejoin:miter;stroke-opacity:1;stroke-miterlimit:4;stroke-dasharray:none"
       d="m 1,19 v 1 h 1"
       id="path7051"
       inkscape:connector-curvature="0" />
  </g>
</svg>
