<?xml version="1.0" encoding="UTF-8" standalone="no"?>
<!-- Created with Inkscape (http://www.inkscape.org/) -->

<svg
   width="16"
   height="16"
   viewBox="0 0 4.2333333 4.2333333"
   version="1.1"
   id="svg5"
   inkscape:version="1.1.1 (3bf5ae0d25, 2021-09-20, custom)"
   sodipodi:docname="Footer.svg"
   xmlns:inkscape="http://www.inkscape.org/namespaces/inkscape"
   xmlns:sodipodi="http://sodipodi.sourceforge.net/DTD/sodipodi-0.dtd"
   xmlns="http://www.w3.org/2000/svg"
   xmlns:svg="http://www.w3.org/2000/svg">
  <sodipodi:namedview
     id="namedview7"
     pagecolor="#ffffff"
     bordercolor="#666666"
     borderopacity="1.0"
     inkscape:pageshadow="2"
     inkscape:pageopacity="0.0"
     inkscape:pagecheckerboard="0"
     inkscape:document-units="mm"
     showgrid="true"
     units="px"
     inkscape:zoom="90.509668"
     inkscape:cx="0.58004853"
     inkscape:cy="9.0211357"
     inkscape:window-width="3840"
     inkscape:window-height="2123"
     inkscape:window-x="1920"
     inkscape:window-y="0"
     inkscape:window-maximized="1"
     inkscape:current-layer="layer2">
    <inkscape:grid
       type="xygrid"
       id="grid824"
       empspacing="4" />
  </sodipodi:namedview>
  <defs
     id="defs2" />
  <g
     inkscape:groupmode="layer"
     id="layer2"
     inkscape:label="Layer 2">
    <path
       style="fill:#ff6600;stroke:#000000;stroke-width:0.15;stroke-linecap:butt;stroke-linejoin:miter;stroke-opacity:1;fill-opacity:1;stroke-miterlimit:4;stroke-dasharray:none"
       d="m 0.26458333,2.1166666 c 0,0 0.26458333,1.8520834 1.85208327,1.8520834 1.5875,0 1.8520834,-1.8520834 1.8520834,-1.8520834 0,0 -0.2645834,-1.85208327 -0.5291667,-1.85208327 -0.2645833,0 -0.79375,1.85208327 -0.79375,1.85208327 0,0 -0.2645833,-1.85208327 -0.5291667,-1.85208327 -0.2645833,0 -0.5291666,1.85208327 -0.5291666,1.85208327 0,0 -0.5291667,-1.85208327 -0.79375001,-1.85208327 -0.26458333,0 -0.52916666,1.85208327 -0.52916666,1.85208327"
       id="path965" />
    <path
       style="fill:#aa4400;stroke:none;stroke-width:0.264583px;stroke-linecap:butt;stroke-linejoin:miter;stroke-opacity:1;fill-opacity:1"
       d="m 0.52916666,2.1166666 c 0,0 0,-1.32291661 0.26458333,-1.32291661 0.26458331,0 0.52916661,1.32291661 0.52916661,1.32291661 0,0 0,0.2645834 -0.2645833,0.2645834 -0.26458331,0 -0.52916664,0 -0.52916664,-0.2645834"
       id="path1247" />
    <path
       style="fill:#aa4400;stroke:none;stroke-width:0.264583px;stroke-linecap:butt;stroke-linejoin:miter;stroke-opacity:1;fill-opacity:1"
       d="m 3.175,2.38125 c 0,0 -0.2645834,0 -0.2645834,-0.2645834 0,-0.2645833 0.2645834,-1.32291661 0.5291667,-1.32291661 0.2645833,0 0.2645833,1.32291661 0.2645833,1.32291661 0,0 0,0.2645834 -0.5291666,0.2645834"
       id="path1350" />
    <path
       style="fill:#aa4400;stroke:none;stroke-width:0.264583px;stroke-linecap:butt;stroke-linejoin:miter;stroke-opacity:1;fill-opacity:1"
       d="m 2.38125,2.1166666 c 0,0 0,0.2645834 -0.2645834,0.2645834 -0.2645833,0 -0.2645833,-0.2645834 -0.2645833,-0.2645834 0,0 0,-1.32291661 0.2645833,-1.32291661 0.2645834,0 0.2645834,1.32291661 0.2645834,1.32291661 z"
       id="path1523" />
  </g>
</svg>
