<?xml version="1.0" encoding="UTF-8" standalone="no"?>
<!-- Created with Inkscape (http://www.inkscape.org/) -->

<svg
   xmlns:osb="http://www.openswatchbook.org/uri/2009/osb"
   xmlns:dc="http://purl.org/dc/elements/1.1/"
   xmlns:cc="http://creativecommons.org/ns#"
   xmlns:rdf="http://www.w3.org/1999/02/22-rdf-syntax-ns#"
   xmlns:svg="http://www.w3.org/2000/svg"
   xmlns="http://www.w3.org/2000/svg"
   xmlns:sodipodi="http://sodipodi.sourceforge.net/DTD/sodipodi-0.dtd"
   xmlns:inkscape="http://www.inkscape.org/namespaces/inkscape"
   width="32px"
   height="32px"
   viewBox="0 0 32 32"
   version="1.1"
   id="SVGRoot"
   inkscape:version="0.92.5 (2060ec1f9f, 2020-04-08)"
   sodipodi:docname="Profile 2.svg">
  <defs
     id="defs7623">
    <linearGradient
       id="linearGradient8279"
       osb:paint="solid">
      <stop
         style="stop-color:#6b00ff;stop-opacity:1;"
         offset="0"
         id="stop8277" />
    </linearGradient>
  </defs>
  <sodipodi:namedview
     id="base"
     pagecolor="#ffffff"
     bordercolor="#666666"
     borderopacity="1.0"
     inkscape:pageopacity="0.0"
     inkscape:pageshadow="2"
     inkscape:zoom="32"
     inkscape:cx="18.251535"
     inkscape:cy="16.860662"
     inkscape:document-units="px"
     inkscape:current-layer="layer7"
     showgrid="true"
     inkscape:window-width="3840"
     inkscape:window-height="2107"
     inkscape:window-x="1920"
     inkscape:window-y="0"
     inkscape:window-maximized="1"
     inkscape:grid-bbox="true">
    <inkscape:grid
       type="xygrid"
       id="grid8179"
       empspacing="4" />
  </sodipodi:namedview>
  <metadata
     id="metadata7626">
    <rdf:RDF>
      <cc:Work
         rdf:about="">
        <dc:format>image/svg+xml</dc:format>
        <dc:type
           rdf:resource="http://purl.org/dc/dcmitype/StillImage" />
        <dc:title></dc:title>
      </cc:Work>
    </rdf:RDF>
  </metadata>
  <g
     inkscape:groupmode="layer"
     id="layer7"
     inkscape:label="Layer 2">
    <path
       style="fill:#c3647c;stroke:#f47d9b;stroke-width:1.13385827;stroke-linecap:butt;stroke-linejoin:miter;stroke-opacity:1;fill-opacity:1;stroke-miterlimit:4;stroke-dasharray:none"
       d="M 4,31 V 21 c 0,0 0,-1 1,-1 1,0 22,0 22,0 0,0 1,0 1,1 0,1 0,10 0,10 z"
       id="path8229"
       inkscape:connector-curvature="0" />
    <path
       style="fill:#5600cc;stroke:#6b00ff;stroke-width:1.13385827;stroke-linecap:butt;stroke-linejoin:miter;stroke-opacity:1;fill-opacity:1;stroke-miterlimit:4;stroke-dasharray:none"
       d="m 16,16 h -3 c 0,0 -1,0 -1,-1 0,-1 0,-6 0,-6 0,0 0,-1 1,-1 1,0 6,0 6,0 0,0 1,0 1,1 0,1 0,6 0,6 0,0 0,1 -1,1 -1,0 -3,0 -3,0"
       id="path8241"
       inkscape:connector-curvature="0" />
  </g>
</svg>
