<?xml version="1.0" encoding="UTF-8" standalone="no"?>
<!-- Created with Inkscape (http://www.inkscape.org/) -->

<svg
   xmlns:dc="http://purl.org/dc/elements/1.1/"
   xmlns:cc="http://creativecommons.org/ns#"
   xmlns:rdf="http://www.w3.org/1999/02/22-rdf-syntax-ns#"
   xmlns:svg="http://www.w3.org/2000/svg"
   xmlns="http://www.w3.org/2000/svg"
   xmlns:sodipodi="http://sodipodi.sourceforge.net/DTD/sodipodi-0.dtd"
   xmlns:inkscape="http://www.inkscape.org/namespaces/inkscape"
   width="32px"
   height="32px"
   viewBox="0 0 32 32"
   version="1.1"
   id="SVGRoot"
   inkscape:version="0.92.5 (2060ec1f9f, 2020-04-08)"
   sodipodi:docname="Source.svg">
  <defs
     id="defs2014" />
  <sodipodi:namedview
     id="base"
     pagecolor="#ffffff"
     bordercolor="#666666"
     borderopacity="1.0"
     inkscape:pageopacity="0.0"
     inkscape:pageshadow="2"
     inkscape:zoom="32"
     inkscape:cx="15.973361"
     inkscape:cy="10.536808"
     inkscape:document-units="px"
     inkscape:current-layer="layer5"
     showgrid="true"
     inkscape:window-width="3840"
     inkscape:window-height="2107"
     inkscape:window-x="1920"
     inkscape:window-y="0"
     inkscape:window-maximized="1"
     inkscape:grid-bbox="true">
    <inkscape:grid
       type="xygrid"
       id="grid2571"
       empspacing="4" />
  </sodipodi:namedview>
  <metadata
     id="metadata2017">
    <rdf:RDF>
      <cc:Work
         rdf:about="">
        <dc:format>image/svg+xml</dc:format>
        <dc:type
           rdf:resource="http://purl.org/dc/dcmitype/StillImage" />
        <dc:title></dc:title>
      </cc:Work>
    </rdf:RDF>
  </metadata>
  <g
     inkscape:groupmode="layer"
     id="layer5"
     inkscape:label="Layer 3">
    <path
       style="fill:#fff6bb;stroke:#fff6d5;stroke-width:0.56692913;stroke-linecap:butt;stroke-linejoin:miter;stroke-opacity:1;stroke-miterlimit:4;stroke-dasharray:none;fill-opacity:1"
       d="m 7,3 h 18 v 19 c 0,0 0,4 -5,4 -5,0 -8,0 -8,0 0,0 -5,0 -5,-4 C 7,18 7,3 7,3"
       id="path2581"
       inkscape:connector-curvature="0" />
  </g>
  <g
     inkscape:groupmode="layer"
     id="layer4"
     inkscape:label="Layer 2">
    <path
       style="fill:none;stroke:#000000;stroke-width:1.13385827;stroke-linecap:butt;stroke-linejoin:miter;stroke-opacity:1;stroke-miterlimit:4;stroke-dasharray:none"
       d="m 8,1 h 16 c 0,0 1,0 1,1 0,1 0,20 0,20 0,0 0,4 -5,4 -5,0 -8,0 -8,0 0,0 -5,0 -5,-4 C 7,18 7,2 7,2 7,2 7,1 8,1"
       id="path2575"
       inkscape:connector-curvature="0" />
    <path
       style="fill:none;stroke:#000000;stroke-width:1.13385827;stroke-linecap:butt;stroke-linejoin:miter;stroke-opacity:1;stroke-miterlimit:4;stroke-dasharray:none"
       d="m 20,26 v 4 c 0,0 0,1 -1,1 -1,0 -6,0 -6,0 0,0 -1,0 -1,-1 0,-1 0,-4 0,-4 z"
       id="path2577"
       inkscape:connector-curvature="0" />
    <path
       style="fill:#0000ff;stroke:none;stroke-width:1px;stroke-linecap:butt;stroke-linejoin:miter;stroke-opacity:1;fill-opacity:1"
       d="M 12,20 H 10 V 4 l 6,6 6,-6 V 20 H 20 V 9 l -4,4 c 0,0 -4,-4 -4,-4 z"
       id="path2579"
       inkscape:connector-curvature="0" />
  </g>
</svg>
